<svg xmlns="http://www.w3.org/2000/svg" width="1024" height="1024" viewBox="0 0 1024 1024">
<defs>
  <path id="blC" d="M -20.16,-144.60 A 146.0 146.0 0 0 1 20.16,-144.60 Q 37.79,-141.03 42.45,-158.41 L 83.86,-312.96 Q 88.00,-328.41 103.35,-323.91 A 340.0 340.0 0 0 0 -103.35,-323.91 Q -88.00,-328.41 -83.86,-312.96 L -42.45,-158.41 Q -37.79,-141.03 -20.16,-144.60 Z"/>
  <linearGradient id="fcC" x1="0" y1="1" x2="1" y2="0">
    <stop offset="0" stop-color="#F8F4EA"/>
    <stop offset="0.55" stop-color="#E8E1CF"/>
    <stop offset="1" stop-color="#CFC5AE"/>
  </linearGradient>
  <linearGradient id="htC" x1="0" y1="1" x2="1" y2="0">
    <stop offset="0" stop-color="#FFFFFF"/>
    <stop offset="1" stop-color="#F7F3E7"/>
  </linearGradient>
  <linearGradient id="bgC" x1="0" y1="0" x2="0.6" y2="1">
    <stop offset="0" stop-color="#1E5250"/>
    <stop offset="0.55" stop-color="#123837"/>
    <stop offset="1" stop-color="#0A2322"/>
  </linearGradient>
  <radialGradient id="shC" cx="0.5" cy="0.05" r="0.9">
    <stop offset="0" stop-color="#FFFFFF" stop-opacity="0.09"/>
    <stop offset="1" stop-color="#FFFFFF" stop-opacity="0"/>
  </radialGradient>
  <filter id="csC" x="-45%" y="-45%" width="190%" height="190%">
    <feDropShadow dx="0" dy="9" stdDeviation="9" flood-color="#000000" flood-opacity="0.38"/>
    <feDropShadow dx="0" dy="24" stdDeviation="28" flood-color="#000000" flood-opacity="0.2"/>
  </filter>
  <filter id="hmC" x="-60%" y="-60%" width="220%" height="220%">
    <feDropShadow dx="0" dy="11" stdDeviation="11" flood-color="#000000" flood-opacity="0.42"/>
    <feDropShadow dx="0" dy="0" stdDeviation="26" flood-color="#FFF3DC" flood-opacity="0.26"/>
  </filter>
</defs>

<rect x="100" y="100" width="824" height="824" rx="185" fill="url(#bgC)"/>
<rect x="100" y="100" width="824" height="824" rx="185" fill="url(#shC)"/>
<rect x="106" y="106" width="812" height="812" rx="180"
      fill="none" stroke="#FFFFFF" stroke-opacity="0.06" stroke-width="3"/>

<g transform="translate(512 512)">
  <use href="#blC" transform="rotate(300)" fill="url(#fcC)" stroke="#000000" stroke-opacity="0.1" stroke-width="2" filter="url(#csC)"/>
  <use href="#blC" transform="rotate(270)" fill="url(#fcC)" stroke="#000000" stroke-opacity="0.1" stroke-width="2" filter="url(#csC)"/>
  <use href="#blC" transform="rotate(240)" fill="url(#fcC)" stroke="#000000" stroke-opacity="0.1" stroke-width="2" filter="url(#csC)"/>
  <use href="#blC" transform="rotate(210)" fill="url(#fcC)" stroke="#000000" stroke-opacity="0.1" stroke-width="2" filter="url(#csC)"/>
  <use href="#blC" transform="rotate(180)" fill="url(#fcC)" stroke="#000000" stroke-opacity="0.1" stroke-width="2" filter="url(#csC)"/>
  <use href="#blC" transform="rotate(150)" fill="url(#fcC)" stroke="#000000" stroke-opacity="0.1" stroke-width="2" filter="url(#csC)"/>
  <use href="#blC" transform="rotate(120)" fill="url(#fcC)" stroke="#000000" stroke-opacity="0.1" stroke-width="2" filter="url(#csC)"/>
  <use href="#blC" transform="rotate(90)" fill="url(#fcC)" stroke="#000000" stroke-opacity="0.1" stroke-width="2" filter="url(#csC)"/>
  <use href="#blC" transform="rotate(60)" fill="url(#fcC)" stroke="#000000" stroke-opacity="0.1" stroke-width="2" filter="url(#csC)"/>
  <use href="#blC" transform="rotate(30)" fill="url(#fcC)" stroke="#000000" stroke-opacity="0.1" stroke-width="2" filter="url(#csC)"/>
  <use href="#blC" transform="translate(0 -12.0)" fill="url(#htC)" filter="url(#hmC)"/>
</g>
</svg>
