<svg xmlns="http://www.w3.org/2000/svg" width="1260" height="960" viewBox="0 0 1260 960">
<rect width="1260" height="960" fill="#FFFFFF"/>
<svg x="15" y="25" width="380" height="380" viewBox="0 0 1024 1024">
<defs>
  <path id="blA" d="M -20.16,-144.60 A 146.0 146.0 0 0 1 20.16,-144.60 Q 37.79,-141.03 42.45,-158.41 L 83.86,-312.96 Q 88.00,-328.41 103.35,-323.91 A 340.0 340.0 0 0 0 -103.35,-323.91 Q -88.00,-328.41 -83.86,-312.96 L -42.45,-158.41 Q -37.79,-141.03 -20.16,-144.60 Z"/>
  <linearGradient id="fcA" x1="0" y1="1" x2="1" y2="0">
    <stop offset="0" stop-color="#F7F4ED"/>
    <stop offset="0.55" stop-color="#E6E0D1"/>
    <stop offset="1" stop-color="#CCC4B0"/>
  </linearGradient>
  <linearGradient id="htA" x1="0" y1="1" x2="1" y2="0">
    <stop offset="0" stop-color="#FFFFFF"/>
    <stop offset="1" stop-color="#F6F2E6"/>
  </linearGradient>
  <linearGradient id="bgA" x1="0" y1="0" x2="0.6" y2="1">
    <stop offset="0" stop-color="#33406B"/>
    <stop offset="0.55" stop-color="#1C2440"/>
    <stop offset="1" stop-color="#10162B"/>
  </linearGradient>
  <radialGradient id="shA" cx="0.5" cy="0.05" r="0.9">
    <stop offset="0" stop-color="#FFFFFF" stop-opacity="0.09"/>
    <stop offset="1" stop-color="#FFFFFF" stop-opacity="0"/>
  </radialGradient>
  <filter id="csA" x="-45%" y="-45%" width="190%" height="190%">
    <feDropShadow dx="0" dy="9" stdDeviation="9" flood-color="#000000" flood-opacity="0.38"/>
    <feDropShadow dx="0" dy="24" stdDeviation="28" flood-color="#000000" flood-opacity="0.2"/>
  </filter>
  <filter id="hmA" x="-60%" y="-60%" width="220%" height="220%">
    <feDropShadow dx="0" dy="11" stdDeviation="11" flood-color="#000000" flood-opacity="0.42"/>
    <feDropShadow dx="0" dy="0" stdDeviation="26" flood-color="#FFF3DC" flood-opacity="0.26"/>
  </filter>
</defs>

<rect x="100" y="100" width="824" height="824" rx="185" fill="url(#bgA)"/>
<rect x="100" y="100" width="824" height="824" rx="185" fill="url(#shA)"/>
<rect x="106" y="106" width="812" height="812" rx="180"
      fill="none" stroke="#FFFFFF" stroke-opacity="0.06" stroke-width="3"/>

<g transform="translate(512 512)">
  <use href="#blA" transform="rotate(300)" fill="url(#fcA)" stroke="#000000" stroke-opacity="0.1" stroke-width="2" filter="url(#csA)"/>
  <use href="#blA" transform="rotate(270)" fill="url(#fcA)" stroke="#000000" stroke-opacity="0.1" stroke-width="2" filter="url(#csA)"/>
  <use href="#blA" transform="rotate(240)" fill="url(#fcA)" stroke="#000000" stroke-opacity="0.1" stroke-width="2" filter="url(#csA)"/>
  <use href="#blA" transform="rotate(210)" fill="url(#fcA)" stroke="#000000" stroke-opacity="0.1" stroke-width="2" filter="url(#csA)"/>
  <use href="#blA" transform="rotate(180)" fill="url(#fcA)" stroke="#000000" stroke-opacity="0.1" stroke-width="2" filter="url(#csA)"/>
  <use href="#blA" transform="rotate(150)" fill="url(#fcA)" stroke="#000000" stroke-opacity="0.1" stroke-width="2" filter="url(#csA)"/>
  <use href="#blA" transform="rotate(120)" fill="url(#fcA)" stroke="#000000" stroke-opacity="0.1" stroke-width="2" filter="url(#csA)"/>
  <use href="#blA" transform="rotate(90)" fill="url(#fcA)" stroke="#000000" stroke-opacity="0.1" stroke-width="2" filter="url(#csA)"/>
  <use href="#blA" transform="rotate(60)" fill="url(#fcA)" stroke="#000000" stroke-opacity="0.1" stroke-width="2" filter="url(#csA)"/>
  <use href="#blA" transform="rotate(30)" fill="url(#fcA)" stroke="#000000" stroke-opacity="0.1" stroke-width="2" filter="url(#csA)"/>
  <use href="#blA" transform="translate(0 -12.0)" fill="url(#htA)" filter="url(#hmA)"/>
</g>
</svg>
<text x="205" y="449" text-anchor="middle" font-family="PingFang SC" font-size="30" fill="#3A3A3A">A · 午夜蓝</text>
<svg x="430" y="25" width="380" height="380" viewBox="0 0 1024 1024">
<defs>
  <path id="blB" d="M -20.16,-144.60 A 146.0 146.0 0 0 1 20.16,-144.60 Q 37.79,-141.03 42.45,-158.41 L 83.86,-312.96 Q 88.00,-328.41 103.35,-323.91 A 340.0 340.0 0 0 0 -103.35,-323.91 Q -88.00,-328.41 -83.86,-312.96 L -42.45,-158.41 Q -37.79,-141.03 -20.16,-144.60 Z"/>
  <linearGradient id="fcB" x1="0" y1="1" x2="1" y2="0">
    <stop offset="0" stop-color="#FBFAF6"/>
    <stop offset="0.55" stop-color="#EAE7DE"/>
    <stop offset="1" stop-color="#D2CCBD"/>
  </linearGradient>
  <linearGradient id="htB" x1="0" y1="1" x2="1" y2="0">
    <stop offset="0" stop-color="#FFFFFF"/>
    <stop offset="1" stop-color="#F8F5EC"/>
  </linearGradient>
  <linearGradient id="bgB" x1="0" y1="0" x2="0.6" y2="1">
    <stop offset="0" stop-color="#42387A"/>
    <stop offset="0.55" stop-color="#262050"/>
    <stop offset="1" stop-color="#141131"/>
  </linearGradient>
  <radialGradient id="shB" cx="0.5" cy="0.05" r="0.9">
    <stop offset="0" stop-color="#FFFFFF" stop-opacity="0.09"/>
    <stop offset="1" stop-color="#FFFFFF" stop-opacity="0"/>
  </radialGradient>
  <filter id="csB" x="-45%" y="-45%" width="190%" height="190%">
    <feDropShadow dx="0" dy="9" stdDeviation="9" flood-color="#000000" flood-opacity="0.38"/>
    <feDropShadow dx="0" dy="24" stdDeviation="28" flood-color="#000000" flood-opacity="0.2"/>
  </filter>
  <filter id="hmB" x="-60%" y="-60%" width="220%" height="220%">
    <feDropShadow dx="0" dy="11" stdDeviation="11" flood-color="#000000" flood-opacity="0.42"/>
    <feDropShadow dx="0" dy="0" stdDeviation="26" flood-color="#FFF3DC" flood-opacity="0.26"/>
  </filter>
</defs>

<rect x="100" y="100" width="824" height="824" rx="185" fill="url(#bgB)"/>
<rect x="100" y="100" width="824" height="824" rx="185" fill="url(#shB)"/>
<rect x="106" y="106" width="812" height="812" rx="180"
      fill="none" stroke="#FFFFFF" stroke-opacity="0.06" stroke-width="3"/>

<g transform="translate(512 512)">
  <use href="#blB" transform="rotate(300)" fill="url(#fcB)" stroke="#000000" stroke-opacity="0.1" stroke-width="2" filter="url(#csB)"/>
  <use href="#blB" transform="rotate(270)" fill="url(#fcB)" stroke="#000000" stroke-opacity="0.1" stroke-width="2" filter="url(#csB)"/>
  <use href="#blB" transform="rotate(240)" fill="url(#fcB)" stroke="#000000" stroke-opacity="0.1" stroke-width="2" filter="url(#csB)"/>
  <use href="#blB" transform="rotate(210)" fill="url(#fcB)" stroke="#000000" stroke-opacity="0.1" stroke-width="2" filter="url(#csB)"/>
  <use href="#blB" transform="rotate(180)" fill="url(#fcB)" stroke="#000000" stroke-opacity="0.1" stroke-width="2" filter="url(#csB)"/>
  <use href="#blB" transform="rotate(150)" fill="url(#fcB)" stroke="#000000" stroke-opacity="0.1" stroke-width="2" filter="url(#csB)"/>
  <use href="#blB" transform="rotate(120)" fill="url(#fcB)" stroke="#000000" stroke-opacity="0.1" stroke-width="2" filter="url(#csB)"/>
  <use href="#blB" transform="rotate(90)" fill="url(#fcB)" stroke="#000000" stroke-opacity="0.1" stroke-width="2" filter="url(#csB)"/>
  <use href="#blB" transform="rotate(60)" fill="url(#fcB)" stroke="#000000" stroke-opacity="0.1" stroke-width="2" filter="url(#csB)"/>
  <use href="#blB" transform="rotate(30)" fill="url(#fcB)" stroke="#000000" stroke-opacity="0.1" stroke-width="2" filter="url(#csB)"/>
  <use href="#blB" transform="translate(0 -12.0)" fill="url(#htB)" filter="url(#hmB)"/>
</g>
</svg>
<text x="620" y="449" text-anchor="middle" font-family="PingFang SC" font-size="30" fill="#3A3A3A">B · 靛紫</text>
<svg x="845" y="25" width="380" height="380" viewBox="0 0 1024 1024">
<defs>
  <path id="blC" d="M -20.16,-144.60 A 146.0 146.0 0 0 1 20.16,-144.60 Q 37.79,-141.03 42.45,-158.41 L 83.86,-312.96 Q 88.00,-328.41 103.35,-323.91 A 340.0 340.0 0 0 0 -103.35,-323.91 Q -88.00,-328.41 -83.86,-312.96 L -42.45,-158.41 Q -37.79,-141.03 -20.16,-144.60 Z"/>
  <linearGradient id="fcC" x1="0" y1="1" x2="1" y2="0">
    <stop offset="0" stop-color="#F8F4EA"/>
    <stop offset="0.55" stop-color="#E8E1CF"/>
    <stop offset="1" stop-color="#CFC5AE"/>
  </linearGradient>
  <linearGradient id="htC" x1="0" y1="1" x2="1" y2="0">
    <stop offset="0" stop-color="#FFFFFF"/>
    <stop offset="1" stop-color="#F7F3E7"/>
  </linearGradient>
  <linearGradient id="bgC" x1="0" y1="0" x2="0.6" y2="1">
    <stop offset="0" stop-color="#1E5250"/>
    <stop offset="0.55" stop-color="#123837"/>
    <stop offset="1" stop-color="#0A2322"/>
  </linearGradient>
  <radialGradient id="shC" cx="0.5" cy="0.05" r="0.9">
    <stop offset="0" stop-color="#FFFFFF" stop-opacity="0.09"/>
    <stop offset="1" stop-color="#FFFFFF" stop-opacity="0"/>
  </radialGradient>
  <filter id="csC" x="-45%" y="-45%" width="190%" height="190%">
    <feDropShadow dx="0" dy="9" stdDeviation="9" flood-color="#000000" flood-opacity="0.38"/>
    <feDropShadow dx="0" dy="24" stdDeviation="28" flood-color="#000000" flood-opacity="0.2"/>
  </filter>
  <filter id="hmC" x="-60%" y="-60%" width="220%" height="220%">
    <feDropShadow dx="0" dy="11" stdDeviation="11" flood-color="#000000" flood-opacity="0.42"/>
    <feDropShadow dx="0" dy="0" stdDeviation="26" flood-color="#FFF3DC" flood-opacity="0.26"/>
  </filter>
</defs>

<rect x="100" y="100" width="824" height="824" rx="185" fill="url(#bgC)"/>
<rect x="100" y="100" width="824" height="824" rx="185" fill="url(#shC)"/>
<rect x="106" y="106" width="812" height="812" rx="180"
      fill="none" stroke="#FFFFFF" stroke-opacity="0.06" stroke-width="3"/>

<g transform="translate(512 512)">
  <use href="#blC" transform="rotate(300)" fill="url(#fcC)" stroke="#000000" stroke-opacity="0.1" stroke-width="2" filter="url(#csC)"/>
  <use href="#blC" transform="rotate(270)" fill="url(#fcC)" stroke="#000000" stroke-opacity="0.1" stroke-width="2" filter="url(#csC)"/>
  <use href="#blC" transform="rotate(240)" fill="url(#fcC)" stroke="#000000" stroke-opacity="0.1" stroke-width="2" filter="url(#csC)"/>
  <use href="#blC" transform="rotate(210)" fill="url(#fcC)" stroke="#000000" stroke-opacity="0.1" stroke-width="2" filter="url(#csC)"/>
  <use href="#blC" transform="rotate(180)" fill="url(#fcC)" stroke="#000000" stroke-opacity="0.1" stroke-width="2" filter="url(#csC)"/>
  <use href="#blC" transform="rotate(150)" fill="url(#fcC)" stroke="#000000" stroke-opacity="0.1" stroke-width="2" filter="url(#csC)"/>
  <use href="#blC" transform="rotate(120)" fill="url(#fcC)" stroke="#000000" stroke-opacity="0.1" stroke-width="2" filter="url(#csC)"/>
  <use href="#blC" transform="rotate(90)" fill="url(#fcC)" stroke="#000000" stroke-opacity="0.1" stroke-width="2" filter="url(#csC)"/>
  <use href="#blC" transform="rotate(60)" fill="url(#fcC)" stroke="#000000" stroke-opacity="0.1" stroke-width="2" filter="url(#csC)"/>
  <use href="#blC" transform="rotate(30)" fill="url(#fcC)" stroke="#000000" stroke-opacity="0.1" stroke-width="2" filter="url(#csC)"/>
  <use href="#blC" transform="translate(0 -12.0)" fill="url(#htC)" filter="url(#hmC)"/>
</g>
</svg>
<text x="1035" y="449" text-anchor="middle" font-family="PingFang SC" font-size="30" fill="#3A3A3A">C · 深青</text>
<svg x="15" y="495" width="380" height="380" viewBox="0 0 1024 1024">
<defs>
  <path id="blD" d="M -20.16,-144.60 A 146.0 146.0 0 0 1 20.16,-144.60 Q 37.79,-141.03 42.45,-158.41 L 83.86,-312.96 Q 88.00,-328.41 103.35,-323.91 A 340.0 340.0 0 0 0 -103.35,-323.91 Q -88.00,-328.41 -83.86,-312.96 L -42.45,-158.41 Q -37.79,-141.03 -20.16,-144.60 Z"/>
  <linearGradient id="fcD" x1="0" y1="1" x2="1" y2="0">
    <stop offset="0" stop-color="#3A342E"/>
    <stop offset="0.55" stop-color="#282320"/>
    <stop offset="1" stop-color="#1D1A17"/>
  </linearGradient>
  <linearGradient id="htD" x1="0" y1="1" x2="1" y2="0">
    <stop offset="0" stop-color="#FFFFFF"/>
    <stop offset="1" stop-color="#F2EDDF"/>
  </linearGradient>
  <linearGradient id="bgD" x1="0" y1="0" x2="0.6" y2="1">
    <stop offset="0" stop-color="#E29B47"/>
    <stop offset="0.55" stop-color="#B56B20"/>
    <stop offset="1" stop-color="#6E3D0F"/>
  </linearGradient>
  <radialGradient id="shD" cx="0.5" cy="0.05" r="0.9">
    <stop offset="0" stop-color="#FFFFFF" stop-opacity="0.1"/>
    <stop offset="1" stop-color="#FFFFFF" stop-opacity="0"/>
  </radialGradient>
  <filter id="csD" x="-45%" y="-45%" width="190%" height="190%">
    <feDropShadow dx="0" dy="9" stdDeviation="9" flood-color="#000000" flood-opacity="0.35"/>
    <feDropShadow dx="0" dy="24" stdDeviation="28" flood-color="#000000" flood-opacity="0.18"/>
  </filter>
  <filter id="hmD" x="-60%" y="-60%" width="220%" height="220%">
    <feDropShadow dx="0" dy="11" stdDeviation="11" flood-color="#000000" flood-opacity="0.39"/>
    <feDropShadow dx="0" dy="0" stdDeviation="26" flood-color="#FFF3DC" flood-opacity="0.26"/>
  </filter>
</defs>

<rect x="100" y="100" width="824" height="824" rx="185" fill="url(#bgD)"/>
<rect x="100" y="100" width="824" height="824" rx="185" fill="url(#shD)"/>
<rect x="106" y="106" width="812" height="812" rx="180"
      fill="none" stroke="#FFFFFF" stroke-opacity="0.1" stroke-width="3"/>

<g transform="translate(512 512)">
  <use href="#blD" transform="rotate(300)" fill="url(#fcD)" stroke="#FFFFFF" stroke-opacity="0.14" stroke-width="2" filter="url(#csD)"/>
  <use href="#blD" transform="rotate(270)" fill="url(#fcD)" stroke="#FFFFFF" stroke-opacity="0.14" stroke-width="2" filter="url(#csD)"/>
  <use href="#blD" transform="rotate(240)" fill="url(#fcD)" stroke="#FFFFFF" stroke-opacity="0.14" stroke-width="2" filter="url(#csD)"/>
  <use href="#blD" transform="rotate(210)" fill="url(#fcD)" stroke="#FFFFFF" stroke-opacity="0.14" stroke-width="2" filter="url(#csD)"/>
  <use href="#blD" transform="rotate(180)" fill="url(#fcD)" stroke="#FFFFFF" stroke-opacity="0.14" stroke-width="2" filter="url(#csD)"/>
  <use href="#blD" transform="rotate(150)" fill="url(#fcD)" stroke="#FFFFFF" stroke-opacity="0.14" stroke-width="2" filter="url(#csD)"/>
  <use href="#blD" transform="rotate(120)" fill="url(#fcD)" stroke="#FFFFFF" stroke-opacity="0.14" stroke-width="2" filter="url(#csD)"/>
  <use href="#blD" transform="rotate(90)" fill="url(#fcD)" stroke="#FFFFFF" stroke-opacity="0.14" stroke-width="2" filter="url(#csD)"/>
  <use href="#blD" transform="rotate(60)" fill="url(#fcD)" stroke="#FFFFFF" stroke-opacity="0.14" stroke-width="2" filter="url(#csD)"/>
  <use href="#blD" transform="rotate(30)" fill="url(#fcD)" stroke="#FFFFFF" stroke-opacity="0.14" stroke-width="2" filter="url(#csD)"/>
  <use href="#blD" transform="translate(0 -12.0)" fill="url(#htD)" filter="url(#hmD)"/>
</g>
</svg>
<text x="205" y="919" text-anchor="middle" font-family="PingFang SC" font-size="30" fill="#3A3A3A">D · 琥珀</text>
<svg x="430" y="495" width="380" height="380" viewBox="0 0 1024 1024">
<defs>
  <path id="blE" d="M -20.16,-144.60 A 146.0 146.0 0 0 1 20.16,-144.60 Q 37.79,-141.03 42.45,-158.41 L 83.86,-312.96 Q 88.00,-328.41 103.35,-323.91 A 340.0 340.0 0 0 0 -103.35,-323.91 Q -88.00,-328.41 -83.86,-312.96 L -42.45,-158.41 Q -37.79,-141.03 -20.16,-144.60 Z"/>
  <linearGradient id="fcE" x1="0" y1="1" x2="1" y2="0">
    <stop offset="0" stop-color="#3A342E"/>
    <stop offset="0.55" stop-color="#282320"/>
    <stop offset="1" stop-color="#1D1A17"/>
  </linearGradient>
  <linearGradient id="htE" x1="0" y1="1" x2="1" y2="0">
    <stop offset="0" stop-color="#EB9433"/>
    <stop offset="1" stop-color="#DA7E20"/>
  </linearGradient>
  <linearGradient id="bgE" x1="0" y1="0" x2="0.6" y2="1">
    <stop offset="0" stop-color="#F7F3EA"/>
    <stop offset="0.55" stop-color="#EAE3D3"/>
    <stop offset="1" stop-color="#D7CEBA"/>
  </linearGradient>
  <radialGradient id="shE" cx="0.5" cy="0.05" r="0.9">
    <stop offset="0" stop-color="#FFFFFF" stop-opacity="0.35"/>
    <stop offset="1" stop-color="#FFFFFF" stop-opacity="0"/>
  </radialGradient>
  <filter id="csE" x="-45%" y="-45%" width="190%" height="190%">
    <feDropShadow dx="0" dy="9" stdDeviation="9" flood-color="#000000" flood-opacity="0.3"/>
    <feDropShadow dx="0" dy="24" stdDeviation="28" flood-color="#000000" flood-opacity="0.15"/>
  </filter>
  <filter id="hmE" x="-60%" y="-60%" width="220%" height="220%">
    <feDropShadow dx="0" dy="11" stdDeviation="11" flood-color="#000000" flood-opacity="0.34"/>
    <feDropShadow dx="0" dy="0" stdDeviation="26" flood-color="#FFF3DC" flood-opacity="0.26"/>
  </filter>
</defs>

<rect x="100" y="100" width="824" height="824" rx="185" fill="url(#bgE)"/>
<rect x="100" y="100" width="824" height="824" rx="185" fill="url(#shE)"/>
<rect x="106" y="106" width="812" height="812" rx="180"
      fill="none" stroke="#000000" stroke-opacity="0.06" stroke-width="3"/>

<g transform="translate(512 512)">
  <use href="#blE" transform="rotate(300)" fill="url(#fcE)" stroke="#FFFFFF" stroke-opacity="0.14" stroke-width="2" filter="url(#csE)"/>
  <use href="#blE" transform="rotate(270)" fill="url(#fcE)" stroke="#FFFFFF" stroke-opacity="0.14" stroke-width="2" filter="url(#csE)"/>
  <use href="#blE" transform="rotate(240)" fill="url(#fcE)" stroke="#FFFFFF" stroke-opacity="0.14" stroke-width="2" filter="url(#csE)"/>
  <use href="#blE" transform="rotate(210)" fill="url(#fcE)" stroke="#FFFFFF" stroke-opacity="0.14" stroke-width="2" filter="url(#csE)"/>
  <use href="#blE" transform="rotate(180)" fill="url(#fcE)" stroke="#FFFFFF" stroke-opacity="0.14" stroke-width="2" filter="url(#csE)"/>
  <use href="#blE" transform="rotate(150)" fill="url(#fcE)" stroke="#FFFFFF" stroke-opacity="0.14" stroke-width="2" filter="url(#csE)"/>
  <use href="#blE" transform="rotate(120)" fill="url(#fcE)" stroke="#FFFFFF" stroke-opacity="0.14" stroke-width="2" filter="url(#csE)"/>
  <use href="#blE" transform="rotate(90)" fill="url(#fcE)" stroke="#FFFFFF" stroke-opacity="0.14" stroke-width="2" filter="url(#csE)"/>
  <use href="#blE" transform="rotate(60)" fill="url(#fcE)" stroke="#FFFFFF" stroke-opacity="0.14" stroke-width="2" filter="url(#csE)"/>
  <use href="#blE" transform="rotate(30)" fill="url(#fcE)" stroke="#FFFFFF" stroke-opacity="0.14" stroke-width="2" filter="url(#csE)"/>
  <use href="#blE" transform="translate(0 -12.0)" fill="url(#htE)" filter="url(#hmE)"/>
</g>
</svg>
<text x="620" y="919" text-anchor="middle" font-family="PingFang SC" font-size="30" fill="#3A3A3A">E · 暖纸</text>
<svg x="845" y="495" width="380" height="380" viewBox="0 0 1024 1024">
<defs>
  <path id="blF" d="M -20.16,-144.60 A 146.0 146.0 0 0 1 20.16,-144.60 Q 37.79,-141.03 42.45,-158.41 L 83.86,-312.96 Q 88.00,-328.41 103.35,-323.91 A 340.0 340.0 0 0 0 -103.35,-323.91 Q -88.00,-328.41 -83.86,-312.96 L -42.45,-158.41 Q -37.79,-141.03 -20.16,-144.60 Z"/>
  <linearGradient id="fcF" x1="0" y1="1" x2="1" y2="0">
    <stop offset="0" stop-color="#FCFBF8"/>
    <stop offset="0.55" stop-color="#EBE8E0"/>
    <stop offset="1" stop-color="#D0CCC0"/>
  </linearGradient>
  <linearGradient id="htF" x1="0" y1="1" x2="1" y2="0">
    <stop offset="0" stop-color="#FFFFFF"/>
    <stop offset="1" stop-color="#F8F6EF"/>
  </linearGradient>
  <linearGradient id="bgF" x1="0" y1="0" x2="0.6" y2="1">
    <stop offset="0" stop-color="#54555B"/>
    <stop offset="0.55" stop-color="#2D2E34"/>
    <stop offset="1" stop-color="#191A1F"/>
  </linearGradient>
  <radialGradient id="shF" cx="0.5" cy="0.05" r="0.9">
    <stop offset="0" stop-color="#FFFFFF" stop-opacity="0.09"/>
    <stop offset="1" stop-color="#FFFFFF" stop-opacity="0"/>
  </radialGradient>
  <filter id="csF" x="-45%" y="-45%" width="190%" height="190%">
    <feDropShadow dx="0" dy="9" stdDeviation="9" flood-color="#000000" flood-opacity="0.38"/>
    <feDropShadow dx="0" dy="24" stdDeviation="28" flood-color="#000000" flood-opacity="0.2"/>
  </filter>
  <filter id="hmF" x="-60%" y="-60%" width="220%" height="220%">
    <feDropShadow dx="0" dy="11" stdDeviation="11" flood-color="#000000" flood-opacity="0.42"/>
    <feDropShadow dx="0" dy="0" stdDeviation="26" flood-color="#FFF3DC" flood-opacity="0.26"/>
  </filter>
</defs>

<rect x="100" y="100" width="824" height="824" rx="185" fill="url(#bgF)"/>
<rect x="100" y="100" width="824" height="824" rx="185" fill="url(#shF)"/>
<rect x="106" y="106" width="812" height="812" rx="180"
      fill="none" stroke="#FFFFFF" stroke-opacity="0.06" stroke-width="3"/>

<g transform="translate(512 512)">
  <use href="#blF" transform="rotate(300)" fill="url(#fcF)" stroke="#000000" stroke-opacity="0.1" stroke-width="2" filter="url(#csF)"/>
  <use href="#blF" transform="rotate(270)" fill="url(#fcF)" stroke="#000000" stroke-opacity="0.1" stroke-width="2" filter="url(#csF)"/>
  <use href="#blF" transform="rotate(240)" fill="url(#fcF)" stroke="#000000" stroke-opacity="0.1" stroke-width="2" filter="url(#csF)"/>
  <use href="#blF" transform="rotate(210)" fill="url(#fcF)" stroke="#000000" stroke-opacity="0.1" stroke-width="2" filter="url(#csF)"/>
  <use href="#blF" transform="rotate(180)" fill="url(#fcF)" stroke="#000000" stroke-opacity="0.1" stroke-width="2" filter="url(#csF)"/>
  <use href="#blF" transform="rotate(150)" fill="url(#fcF)" stroke="#000000" stroke-opacity="0.1" stroke-width="2" filter="url(#csF)"/>
  <use href="#blF" transform="rotate(120)" fill="url(#fcF)" stroke="#000000" stroke-opacity="0.1" stroke-width="2" filter="url(#csF)"/>
  <use href="#blF" transform="rotate(90)" fill="url(#fcF)" stroke="#000000" stroke-opacity="0.1" stroke-width="2" filter="url(#csF)"/>
  <use href="#blF" transform="rotate(60)" fill="url(#fcF)" stroke="#000000" stroke-opacity="0.1" stroke-width="2" filter="url(#csF)"/>
  <use href="#blF" transform="rotate(30)" fill="url(#fcF)" stroke="#000000" stroke-opacity="0.1" stroke-width="2" filter="url(#csF)"/>
  <use href="#blF" transform="translate(0 -12.0)" fill="url(#htF)" filter="url(#hmF)"/>
</g>
</svg>
<text x="1035" y="919" text-anchor="middle" font-family="PingFang SC" font-size="30" fill="#3A3A3A">F · 石墨</text>
</svg>
